<svg xmlns="http://www.w3.org/2000/svg" width="18.362" height="12.536" viewBox="0 0 18.362 12.536">
  <g id="email" transform="translate(0.25 0.25)">
    <path id="パス_893" data-name="パス 893" d="M17.6,83.5H.262A.262.262,0,0,0,0,83.762V95.274a.262.262,0,0,0,.262.262H17.6a.262.262,0,0,0,.262-.262V83.762A.262.262,0,0,0,17.6,83.5ZM.523,85.3a1.837,1.837,0,0,0,.3.245l3.114,2.067a.262.262,0,1,0,.289-.436L1.108,85.113a1.305,1.305,0,0,1-.585-1.09H17.339a1.305,1.305,0,0,1-.585,1.09l-7.1,4.714a1.306,1.306,0,0,1-1.447,0L5.094,87.76A.262.262,0,0,0,4.8,88.2L6.8,89.518.818,93.487a1.839,1.839,0,0,0-.3.245Zm0,9.708a1.305,1.305,0,0,1,.585-1.09l6.161-4.091.649.431a1.828,1.828,0,0,0,2.026,0l.649-.431,6.161,4.091a1.305,1.305,0,0,1,.585,1.09Zm16.815-1.281a1.837,1.837,0,0,0-.3-.245l-5.977-3.969,5.977-3.969a1.837,1.837,0,0,0,.3-.245Z" transform="translate(0 -83.5)" fill="#fff" stroke="#fff" stroke-linecap="round" stroke-linejoin="round" stroke-width="0.5"/>
  </g>
</svg>
