<svg id="_014-rgb" data-name="014-rgb" xmlns="http://www.w3.org/2000/svg" width="97.162" height="97.162" viewBox="0 0 97.162 97.162">
  <path id="パス_266" data-name="パス 266" d="M156.109,205.4a33.5,33.5,0,0,0,20.1-30.653,33.323,33.323,0,0,0-40.2,0A33.5,33.5,0,0,0,156.109,205.4Z" transform="translate(-107.528 -132.821)" fill="#fbcc07"/>
  <path id="パス_267" data-name="パス 267" d="M61.982,0a34.872,34.872,0,0,0-13.4,2.694A35.1,35.1,0,0,0,0,35.179,34.864,34.864,0,0,0,13.442,62.773a35.146,35.146,0,0,0,70.275.005,34.867,34.867,0,0,0,13.445-27.6A35.22,35.22,0,0,0,61.982,0ZM51.538,7.905c.2.122.414.236.613.362.623.394,1.231.8,1.823,1.235l.119.092q.822.608,1.6,1.263c.188.157.365.327.548.489.362.32.722.642,1.067.977.2.2.4.4.6.608.31.317.616.633.911.962.2.221.392.449.585.677.276.327.549.657.812.992.186.238.37.479.549.722.253.342.5.69.737,1.042.169.248.337.5.5.75.235.367.457.742.675,1.119.144.248.291.494.431.747.224.41.432.829.637,1.248.112.23.233.457.34.69.248.538.474,1.084.692,1.635.049.122.1.241.151.364q.387,1.02.705,2.069c.057.189.1.384.156.575.146.513.285,1.025.405,1.546.06.26.107.524.159.786.094.459.184.92.256,1.385.045.286.08.576.117.866.035.273.062.549.09.824-.523-.32-1.057-.611-1.591-.9-.137-.075-.271-.159-.41-.233q-1.173-.616-2.382-1.137c-.214-.094-.436-.171-.653-.26-.595-.243-1.191-.476-1.8-.685-.3-.1-.6-.194-.9-.288-.538-.169-1.077-.328-1.622-.472-.325-.085-.65-.164-.978-.24-.541-.126-1.086-.235-1.633-.333-.325-.059-.648-.119-.975-.169-.591-.09-1.186-.157-1.784-.216-.283-.028-.563-.065-.848-.087-.876-.064-1.762-.1-2.654-.1s-1.777.04-2.659.107c-.285.022-.566.059-.849.087-.6.059-1.189.126-1.779.216-.33.05-.657.111-.985.171-.543.1-1.082.208-1.618.332q-.5.116-.993.243c-.538.141-1.07.3-1.6.466-.31.1-.62.191-.926.3-.59.2-1.173.432-1.752.668-.231.094-.467.178-.7.278q-1.2.52-2.367,1.129c-.159.084-.313.181-.472.268-.518.283-1.037.565-1.543.874.028-.281.057-.563.094-.843s.072-.581.117-.869c.074-.467.164-.93.258-1.39.052-.258.1-.518.157-.774.124-.541.27-1.075.422-1.608.049-.168.087-.34.137-.508.213-.7.447-1.39.707-2.071.054-.139.117-.275.171-.412.213-.534.432-1.065.673-1.588.106-.23.223-.452.333-.678.208-.424.419-.846.645-1.26.134-.246.278-.486.419-.729.223-.384.451-.764.689-1.139.157-.246.32-.487.484-.729.245-.36.494-.715.754-1.065q.261-.354.533-.7c.27-.345.549-.682.833-1.015.188-.219.374-.441.566-.655.3-.337.618-.663.935-.987.191-.194.379-.394.576-.585.358-.347.73-.68,1.106-1.01.171-.151.337-.308.511-.456.549-.464,1.116-.913,1.7-1.34l.023-.018q.89-.651,1.829-1.24c.2-.124.4-.235.6-.355.434-.261.869-.518,1.318-.759.255-.137.518-.261.776-.392q.432-.216.873-.42.44.2.871.419c.261.131.524.256.781.4C50.677,7.393,51.107,7.649,51.538,7.905ZM72.593,41.14c.615.7,1.2,1.426,1.751,2.174.067.092.129.188.2.28.543.759,1.055,1.54,1.526,2.34.027.045.057.09.084.136.474.816.9,1.655,1.3,2.509.065.139.131.276.194.417q.56,1.251,1.012,2.55c.052.149.1.3.149.451.293.891.558,1.792.772,2.712.017.07.028.142.044.214q.3,1.344.487,2.726c.017.119.037.236.052.357.114.923.181,1.856.216,2.8,0,.092.005.186.008.278q-.384.274-.776.536c-.322.216-.642.434-.968.637-.4.246-.8.472-1.208.7-.325.183-.648.37-.98.541-.42.218-.851.414-1.28.611-.328.151-.653.31-.985.449-.446.186-.9.348-1.35.514-.328.121-.653.25-.985.358-.469.154-.946.281-1.422.414-.325.09-.647.193-.975.271-.5.122-1.008.213-1.516.31-.312.059-.62.132-.933.183-.563.09-1.132.147-1.7.206-.265.027-.526.07-.791.092q-1.256.106-2.53.106c-.982,0-1.955-.06-2.923-.149-.275-.025-.549-.059-.824-.09q-1.141-.136-2.267-.353c-.226-.044-.454-.079-.678-.127-.844-.183-1.679-.41-2.508-.663.211-.122.41-.256.618-.382.248-.151.5-.3.74-.457.461-.295.91-.6,1.354-.916.2-.142.405-.278.6-.424.628-.464,1.241-.945,1.833-1.447.059-.05.112-.1.171-.154q.8-.686,1.555-1.419c.186-.179.362-.367.544-.551.369-.374.73-.752,1.082-1.141q.286-.317.563-.642c.333-.387.655-.782.97-1.183.169-.216.342-.431.506-.65.347-.464.678-.938,1-1.417.109-.161.226-.318.332-.482q.631-.97,1.2-1.978c.087-.154.164-.315.248-.471.285-.526.56-1.055.817-1.6.116-.243.223-.487.333-.732.211-.471.414-.945.6-1.424q.158-.395.307-.794c.183-.493.352-.992.513-1.494.079-.246.162-.489.235-.737q.289-.975.519-1.972c.023-.1.054-.2.075-.3.171-.764.313-1.536.432-2.313.035-.233.06-.467.09-.7.052-.394.114-.784.152-1.181.035.034.074.064.109.1.689.64,1.342,1.308,1.965,2C72.37,40.887,72.483,41.012,72.593,41.14ZM41.872,66.288c-.223.049-.451.082-.675.126q-1.128.219-2.272.353c-.273.032-.546.065-.821.09-.97.09-1.943.151-2.925.151q-1.271,0-2.528-.1c-.278-.022-.553-.067-.829-.1-.556-.059-1.112-.114-1.66-.2-.332-.054-.657-.131-.987-.193-.487-.094-.977-.183-1.459-.3-.35-.085-.7-.193-1.042-.29-.452-.126-.9-.246-1.35-.394-.357-.117-.705-.256-1.057-.385-.427-.157-.854-.31-1.275-.486-.357-.149-.705-.318-1.057-.482-.4-.188-.809-.37-1.206-.576-.353-.183-.7-.382-1.045-.578-.384-.216-.767-.431-1.142-.663-.345-.214-.682-.444-1.022-.672-.248-.168-.494-.337-.74-.511,0-.087.005-.176.008-.263.034-.946.1-1.886.216-2.816.015-.117.035-.235.052-.352.124-.913.283-1.818.484-2.709.018-.079.03-.161.05-.24.211-.908.472-1.8.762-2.682.054-.163.106-.327.162-.489q.445-1.279,1-2.513c.07-.156.144-.312.218-.466.392-.838.811-1.662,1.275-2.463.04-.069.084-.132.124-.2.456-.774.95-1.526,1.473-2.26.077-.109.151-.221.23-.328.539-.737,1.119-1.449,1.724-2.143.121-.137.241-.275.365-.41.616-.682,1.261-1.342,1.942-1.973l.119-.106c.039.392.1.781.152,1.169.032.238.055.479.092.715.121.776.261,1.545.432,2.307.025.112.059.221.084.332q.229.977.511,1.938c.074.253.159.5.24.75.159.5.327.993.508,1.484.1.268.2.534.308.8q.286.716.6,1.419c.111.246.219.494.335.737.258.539.533,1.069.816,1.595.084.156.161.317.248.471q.568,1.01,1.2,1.982c.1.159.216.312.322.469.327.486.663.965,1.015,1.434.161.216.33.426.5.637q.477.608.982,1.194.274.319.554.632c.355.394.722.777,1.1,1.156.178.179.35.362.531.538q.766.744,1.578,1.441c.05.044.1.09.149.134.593.5,1.209.985,1.838,1.451.193.142.394.276.591.415.447.317.9.628,1.365.925.241.154.487.3.734.452.209.126.41.261.622.384C43.55,65.877,42.716,66.105,41.872,66.288ZM31.938,34.9c.385-.238.777-.457,1.169-.678.337-.189.672-.384,1.013-.56.41-.211.829-.4,1.248-.6.338-.156.672-.318,1.015-.462.436-.183.881-.342,1.323-.5.337-.124.67-.256,1.01-.369.462-.152.931-.278,1.4-.407.332-.092.66-.2,1-.276.5-.121,1-.211,1.5-.307.317-.06.63-.136.948-.186.56-.089,1.126-.146,1.692-.206.268-.028.531-.072.8-.094.836-.067,1.68-.1,2.528-.1s1.692.035,2.53.1c.266.022.526.065.791.092.57.06,1.139.117,1.7.206.313.05.621.124.933.183.508.1,1.015.189,1.516.31.328.079.65.181.975.271.476.132.953.26,1.422.414.332.109.657.24.985.358.452.166.906.328,1.35.514.332.139.658.3.985.449.429.2.858.394,1.28.611.33.171.653.358.98.541.405.228.811.456,1.208.7.327.2.647.42.968.637q.387.259.769.533c-.008.275-.017.548-.032.821-.018.34-.035.68-.064,1.017-.037.427-.089.849-.142,1.271-.042.332-.08.665-.134,1-.067.422-.151.839-.235,1.256-.065.323-.124.647-.2.967-.1.419-.213.831-.328,1.243-.085.312-.166.625-.261.931-.127.412-.275.818-.419,1.223-.106.3-.2.6-.32.9-.159.409-.338.809-.514,1.21-.122.281-.236.566-.367.843-.2.414-.412.814-.625,1.22-.134.255-.258.514-.4.766-.251.449-.528.885-.8,1.32-.121.193-.231.394-.357.583q-.608.925-1.28,1.808c-.147.193-.31.375-.462.566-.312.39-.62.782-.95,1.158-.208.236-.431.457-.645.687-.293.315-.583.635-.89.938-.238.235-.491.456-.735.683-.3.28-.6.565-.913.834-.261.224-.538.436-.807.653-.315.253-.628.511-.955.752-.281.209-.575.4-.864.6-.332.23-.662.462-1,.68-.3.191-.608.367-.915.549-.35.208-.7.415-1.059.61-.313.169-.635.327-.955.486-.255.127-.511.25-.769.37q-.389-.181-.771-.37c-.32-.159-.64-.315-.953-.484-.362-.2-.714-.405-1.065-.613-.3-.179-.61-.355-.906-.544-.345-.219-.678-.456-1.015-.687-.285-.2-.575-.39-.853-.6-.33-.246-.648-.506-.968-.764-.265-.213-.536-.42-.792-.642-.32-.275-.623-.565-.93-.849-.24-.223-.486-.439-.719-.668-.312-.308-.6-.632-.9-.953-.209-.224-.429-.442-.632-.673-.337-.384-.652-.782-.968-1.181-.146-.183-.3-.357-.442-.543q-.671-.882-1.28-1.808c-.132-.2-.248-.412-.377-.616-.266-.425-.534-.849-.779-1.287-.147-.263-.278-.538-.419-.806-.2-.39-.414-.777-.6-1.176-.137-.291-.258-.591-.387-.888-.169-.387-.342-.771-.5-1.164-.121-.31-.224-.627-.335-.94-.137-.39-.28-.779-.4-1.176-.1-.325-.184-.655-.275-.983-.109-.4-.219-.789-.313-1.189-.079-.337-.142-.677-.209-1.017-.08-.4-.161-.8-.226-1.2-.055-.347-.1-.7-.141-1.045-.05-.405-.1-.811-.137-1.22-.03-.353-.049-.71-.067-1.065q-.02-.395-.03-.789.367-.261.739-.511C31.263,35.34,31.6,35.112,31.938,34.9ZM3.35,35.179A31.864,31.864,0,0,1,35.179,3.35,31.525,31.525,0,0,1,44.4,4.719c-.206.119-.4.253-.6.375-.288.174-.573.35-.856.531-.405.261-.8.533-1.194.809-.273.193-.548.382-.814.581-.385.288-.757.588-1.129.891-.256.209-.518.41-.767.627-.367.317-.717.648-1.07.978-.236.221-.479.432-.709.658q-.8.789-1.541,1.627c-.338.38-.655.777-.977,1.173-.168.206-.342.405-.506.616-.332.426-.643.866-.955,1.307-.131.184-.265.367-.392.554-.322.472-.625.957-.923,1.446-.1.156-.191.312-.283.469q-.465.792-.888,1.607l-.171.332c-.3.6-.59,1.2-.858,1.813l-.04.1a35.044,35.044,0,0,0-2.875,12.725c-.007.152-.022.3-.027.456-.089.07-.166.151-.255.223-.829.665-1.63,1.355-2.387,2.081-.084.08-.162.166-.246.248q-1.111,1.086-2.116,2.255c-.067.077-.137.151-.2.23-.675.8-1.3,1.632-1.9,2.483-.1.149-.211.3-.313.447q-.857,1.264-1.6,2.592c-.087.156-.169.313-.253.471-.493.916-.952,1.849-1.359,2.806-.034.08-.062.162-.1.241q-.593,1.42-1.055,2.895c-.034.106-.072.209-.106.317-.3.99-.553,2-.766,3.017-.039.183-.077.364-.114.548q-.291,1.508-.454,3.052c-.008.074-.025.146-.032.219A31.524,31.524,0,0,1,3.35,35.179Zm45.23,58.632a31.871,31.871,0,0,1-31.66-28.6c.519.318,1.05.606,1.581.9.151.082.3.174.449.255q1.168.613,2.374,1.134c.223.1.449.176.673.268.588.24,1.178.471,1.777.678.3.1.606.194.911.291.534.169,1.072.328,1.615.471.327.085.653.164.982.241.541.126,1.086.235,1.632.333.323.059.647.119.973.169.591.089,1.188.157,1.786.216.283.028.563.065.848.087.879.062,1.766.1,2.657.1a35.39,35.39,0,0,0,3.535-.181c.39-.039.772-.119,1.159-.171.776-.106,1.553-.2,2.318-.362.456-.094.9-.228,1.354-.338.687-.169,1.375-.332,2.054-.543.472-.147.935-.333,1.4-.5.526-.189,1.059-.35,1.578-.565.521.214,1.054.377,1.581.566.467.168.928.353,1.4.5.678.211,1.369.374,2.055.543.451.111.9.246,1.352.338.764.156,1.54.256,2.313.36.389.052.772.132,1.164.173,1.171.117,2.35.181,3.536.181.893,0,1.777-.04,2.66-.107.285-.022.565-.059.848-.087.6-.06,1.193-.127,1.784-.216.328-.05.653-.111.978-.169.544-.1,1.086-.208,1.625-.332q.5-.116.99-.243c.538-.141,1.07-.3,1.6-.466.308-.1.618-.189.925-.3.591-.2,1.174-.432,1.754-.668.231-.094.466-.178.7-.276q1.2-.52,2.369-1.131c.154-.08.3-.176.457-.258.531-.288,1.062-.578,1.58-.895A31.877,31.877,0,0,1,48.581,93.811Zm35.008-35.3c-.007-.075-.025-.147-.033-.221q-.161-1.538-.452-3.044-.055-.279-.116-.558c-.214-1.017-.462-2.022-.764-3.009-.034-.109-.074-.214-.107-.323-.308-.975-.657-1.937-1.05-2.878-.035-.085-.065-.173-.1-.256-.407-.953-.864-1.885-1.355-2.8-.085-.159-.169-.318-.256-.476q-.739-1.327-1.595-2.588c-.1-.151-.208-.3-.313-.447-.6-.851-1.225-1.684-1.9-2.484-.064-.075-.132-.146-.2-.221q-1-1.168-2.117-2.258c-.084-.082-.164-.169-.25-.251-.757-.727-1.56-1.417-2.389-2.084-.087-.07-.162-.149-.25-.218-.008-.387-.042-.769-.064-1.154-.017-.293-.025-.586-.049-.878-.049-.608-.122-1.211-.2-1.811-.027-.206-.044-.414-.075-.62q-.183-1.209-.446-2.4c-.03-.137-.072-.27-.1-.407-.152-.648-.317-1.292-.506-1.926-.079-.265-.171-.523-.255-.784-.161-.5-.327-1-.511-1.5-.109-.29-.226-.576-.342-.863-.184-.456-.374-.91-.575-1.357-.132-.293-.271-.581-.41-.869-.211-.434-.429-.861-.657-1.285-.152-.283-.307-.566-.467-.846-.241-.422-.5-.836-.754-1.246-.166-.265-.33-.529-.5-.789-.285-.426-.583-.841-.886-1.253-.169-.23-.33-.464-.5-.69-.374-.484-.764-.953-1.163-1.417-.121-.141-.233-.286-.355-.426q-.792-.895-1.647-1.737c-.136-.141-.29-.27-.434-.409-.432-.412-.871-.821-1.325-1.211-.226-.194-.462-.377-.694-.566-.392-.32-.784-.637-1.191-.94-.263-.2-.533-.384-.8-.573-.394-.278-.791-.549-1.2-.812-.288-.186-.58-.365-.873-.543-.2-.121-.392-.251-.595-.369A31.544,31.544,0,0,1,61.982,3.35,31.864,31.864,0,0,1,93.811,35.179,31.505,31.505,0,0,1,83.589,58.506Z" transform="translate(0 0)" fill="#322153"/>
</svg>
