<svg id="_011-wireless-internet" data-name="011-wireless-internet" xmlns="http://www.w3.org/2000/svg" width="91.762" height="96.508" viewBox="0 0 91.762 96.508">
  <path id="パス_258" data-name="パス 258" d="M86.668,46.067a44.307,44.307,0,1,0,8.839,6.8A44.078,44.078,0,0,0,86.668,46.067Z" transform="translate(-18.418 -32.09)" fill="#fbcc07"/>
  <path id="パス_259" data-name="パス 259" d="M81.051,6.286a45.865,45.865,0,1,0,9.156,7.039A45.844,45.844,0,0,0,81.051,6.286Zm3.523,16.841c.125.429.258.857.375,1.286.233.842.443,1.685.649,2.527.076.312.163.625.234.937q.406,1.744.734,3.487c.025.139.044.277.07.416.185,1.014.354,2.028.5,3.042.055.389.1.778.147,1.169.1.761.193,1.522.269,2.281.046.456.078.911.115,1.365.057.693.109,1.388.147,2.079.027.483.044.965.06,1.448.014.378.019.755.027,1.133H59.463V22.134c.331-.006.663-.027.994-.038.424-.014.848-.028,1.272-.049.638-.03,1.277-.073,1.916-.119.416-.03.832-.057,1.248-.093.679-.059,1.359-.133,2.038-.21.372-.041.744-.076,1.115-.123.888-.112,1.775-.242,2.663-.383.165-.025.328-.046.492-.073q1.571-.259,3.142-.579c.329-.066.658-.146.986-.215.726-.155,1.452-.315,2.177-.489.394-.095.786-.2,1.179-.3.668-.171,1.334-.345,2-.532.4-.112.8-.233,1.206-.35.369-.109.737-.207,1.106-.321.15.426.3.851.446,1.277.16.471.321.941.471,1.413C84.147,21.676,84.362,22.4,84.574,23.127Zm3.24,26.937c-.038.677-.09,1.356-.144,2.033-.038.475-.073.949-.12,1.425-.073.725-.165,1.449-.256,2.175-.055.43-.1.859-.163,1.289-.131.911-.286,1.823-.449,2.735-.044.244-.078.489-.123.733q-.325,1.721-.726,3.444c-.089.38-.193.759-.286,1.141-.191.777-.384,1.554-.6,2.33-.128.465-.272.929-.408,1.394-.2.695-.41,1.391-.633,2.085-.157.489-.324.976-.49,1.465-.142.418-.291.835-.438,1.253-.354-.111-.709-.206-1.063-.312-.435-.13-.87-.259-1.305-.383-.65-.184-1.3-.354-1.951-.522-.41-.106-.818-.217-1.228-.316-.729-.177-1.457-.339-2.185-.5-.326-.071-.653-.15-.979-.217Q72.689,71,71.12,70.732c-.18-.03-.359-.052-.539-.081-.869-.139-1.737-.269-2.6-.381-.378-.049-.755-.085-1.133-.128-.668-.076-1.335-.15-2-.21-.427-.038-.853-.066-1.278-.1-.615-.044-1.229-.087-1.843-.117-.445-.022-.888-.038-1.331-.052-.309-.009-.619-.03-.927-.036V47.463H87.9c-.008.375-.013.751-.027,1.126C87.858,49.081,87.841,49.572,87.814,50.064ZM36.822,83.04q-.842-1.732-1.626-3.531c-.133-.309-.258-.623-.388-.933-.285-.676-.554-1.362-.823-2.049.3-.093.608-.19.911-.28.407-.12.813-.24,1.22-.354.631-.177,1.261-.343,1.892-.506.386-.1.77-.2,1.155-.294.693-.168,1.384-.321,2.074-.471.32-.07.639-.146.957-.21q1.514-.311,3.025-.565l.081-.013q1.467-.242,2.928-.427c.32-.041.639-.071.959-.108.682-.079,1.362-.153,2.041-.215.377-.033.753-.059,1.13-.087.622-.046,1.244-.087,1.864-.119q.591-.028,1.182-.047c.3-.009.6-.013.9-.019V88.567A42.7,42.7,0,0,1,36.822,83.04ZM31.254,68.63c-.13-.441-.267-.884-.391-1.326-.231-.827-.44-1.655-.644-2.481-.082-.335-.177-.671-.255-1.006-.272-1.161-.522-2.321-.742-3.477-.038-.2-.066-.4-.1-.6-.176-.954-.339-1.908-.478-2.859-.059-.4-.1-.8-.155-1.2-.1-.75-.195-1.5-.271-2.248-.046-.449-.079-.9-.117-1.345-.059-.7-.112-1.392-.152-2.087-.027-.467-.043-.933-.06-1.4-.014-.38-.019-.758-.028-1.138H56.3V69.631c-.305.006-.614.027-.921.036-.443.014-.886.03-1.331.052-.608.03-1.217.071-1.826.115-.429.032-.858.06-1.286.1-.655.059-1.312.131-1.968.206-.386.044-.772.081-1.158.131-.853.109-1.705.237-2.561.373-.19.03-.38.054-.57.085q-1.566.261-3.137.585c-.32.065-.639.142-.959.212-.734.16-1.468.321-2.2.5-.4.1-.8.2-1.2.307-.657.169-1.315.342-1.971.527-.427.12-.854.247-1.282.375-.358.106-.714.2-1.071.313-.155-.437-.312-.873-.459-1.31-.161-.476-.326-.952-.479-1.429C31.684,70.081,31.468,69.354,31.254,68.63ZM27.948,41.767c.038-.688.092-1.378.15-2.068.038-.452.071-.9.117-1.356.074-.74.169-1.482.267-2.224.052-.405.1-.81.157-1.215.138-.943.3-1.889.473-2.835.038-.206.065-.408.1-.614q.33-1.732.739-3.471c.076-.323.166-.647.245-.971.207-.837.418-1.675.65-2.514.119-.429.253-.859.38-1.288.217-.736.435-1.471.672-2.207.15-.467.31-.933.468-1.4.149-.44.307-.881.464-1.321.342.106.685.2,1.028.3.438.13.875.258,1.313.381.634.177,1.27.342,1.9.5.413.106.826.215,1.24.315.71.171,1.421.326,2.131.478.339.073.676.153,1.014.221q1.569.318,3.137.576c.131.022.261.036.392.057q1.379.221,2.759.4c.346.043.693.076,1.039.115.7.079,1.408.155,2.111.217.4.035.8.06,1.193.089.652.047,1.3.09,1.952.12.418.021.835.035,1.253.047.331.011.663.032.994.038V44.3H27.859c.008-.377.014-.753.027-1.131C27.9,42.7,27.922,42.234,27.948,41.767Zm51.078-33c.563,1.15,1.111,2.324,1.633,3.523.134.307.258.623.388.933.285.676.554,1.364.826,2.052-.285.087-.57.177-.856.263-.429.127-.859.252-1.288.372-.6.166-1.194.323-1.793.476-.413.106-.824.214-1.237.313-.655.158-1.31.3-1.965.441-.351.076-.7.158-1.057.229q-1.457.294-2.916.538l-.234.038q-1.443.235-2.883.415c-.34.043-.679.074-1.017.112-.668.076-1.337.149-2,.207-.4.035-.794.06-1.191.089-.608.044-1.215.084-1.823.114-.422.021-.843.035-1.264.049-.3.009-.59.013-.884.019V3.194A42.682,42.682,0,0,1,79.026,8.77Zm7.094,5.066c-.405.147-.805.3-1.213.437q-.427-1.089-.88-2.164Q85.1,12.938,86.12,13.835ZM56.3,18.952c-.294-.006-.587-.009-.881-.019-.419-.013-.84-.028-1.259-.049-.6-.028-1.2-.068-1.8-.112-.4-.028-.805-.055-1.209-.09-.652-.057-1.305-.128-1.957-.2-.351-.04-.7-.073-1.054-.117-.951-.12-1.9-.255-2.856-.41l-.248-.04q-1.452-.24-2.908-.535c-.337-.068-.674-.147-1.013-.22-.671-.144-1.342-.291-2.012-.451-.391-.093-.78-.2-1.171-.3-.623-.158-1.245-.321-1.868-.5-.4-.111-.8-.228-1.2-.345-.3-.089-.6-.184-.9-.275.271-.69.541-1.381.826-2.06.134-.318.261-.642.4-.957.524-1.209,1.073-2.394,1.637-3.558A42.689,42.689,0,0,1,56.3,3.194ZM30.917,14.316c-.331-.114-.663-.223-.992-.34L29.7,13.9c-.03-.011-.06-.024-.09-.033q1.085-.956,2.237-1.842C31.528,12.78,31.218,13.548,30.917,14.316ZM27.069,16.3c.247.095.5.18.751.272.487.18.975.359,1.468.533.174.062.343.128.519.188-.153.433-.288.867-.433,1.3-.169.5-.34,1-.5,1.5-.237.739-.457,1.476-.674,2.213-.139.471-.283.941-.415,1.413-.226.816-.43,1.631-.633,2.446-.1.388-.2.777-.293,1.164q-.42,1.8-.763,3.59c-.025.131-.043.263-.066.394q-.3,1.6-.532,3.191c-.059.405-.1.81-.155,1.215-.1.786-.2,1.573-.282,2.356-.047.465-.081.929-.119,1.392-.06.725-.117,1.448-.157,2.169-.027.481-.044.962-.062,1.441-.014.407-.044.816-.052,1.223h-9.48A42.376,42.376,0,0,1,27.069,16.3Zm-2.4,31.164c.008.408.036.818.052,1.226.017.483.035.965.062,1.449.04.721.1,1.444.157,2.167.04.467.073.933.12,1.4.079.786.18,1.574.283,2.364.052.405.1.808.155,1.213q.237,1.628.544,3.264c.021.109.035.217.055.326.228,1.2.487,2.4.769,3.61.085.367.188.736.278,1.1.207.84.419,1.679.653,2.52.127.456.267.913.4,1.37.221.755.448,1.509.691,2.264.158.49.326.981.494,1.471.15.441.286.883.443,1.324q-1.365.472-2.705.982A42.363,42.363,0,0,1,15.193,47.463ZM29.707,77.98c.416-.15.826-.3,1.245-.448q.434,1.111.9,2.207Q30.746,78.894,29.707,77.98Zm29.756-5.17c.3.006.6.009.9.019.4.014.8.028,1.2.049.606.03,1.215.071,1.824.116.394.028.788.055,1.183.092.655.059,1.312.131,1.968.207.345.04.69.073,1.036.117q1.388.178,2.783.408l.231.035q1.507.252,3.017.565c.326.066.653.146.979.215.69.15,1.38.3,2.069.471.381.093.763.195,1.144.293.641.165,1.28.334,1.921.516.4.111.793.228,1.188.346.313.093.627.193.938.29-.266.674-.53,1.348-.81,2.012-.133.315-.258.634-.394.945q-.776,1.78-1.617,3.487a42.668,42.668,0,0,1-19.561,5.575Zm25.416,4.746c.4.138.783.282,1.175.424q-.987.869-2.027,1.672Q84.465,78.611,84.879,77.556Zm3.754-2.036c-.869-.331-1.75-.65-2.636-.959.157-.445.294-.889.445-1.332.158-.47.32-.94.47-1.41.247-.77.476-1.541.7-2.311.127-.433.259-.867.38-1.3.239-.862.454-1.726.666-2.588.084-.34.177-.682.256-1.022q.422-1.818.766-3.634c0-.006,0-.014,0-.021q.335-1.789.589-3.577c.055-.383.095-.764.144-1.147.106-.816.207-1.633.288-2.448.046-.46.078-.919.116-1.378.06-.739.117-1.478.157-2.217.027-.484.043-.968.06-1.451.016-.419.044-.842.052-1.261h9.48A42.363,42.363,0,0,1,88.634,75.52ZM91.089,44.3c-.008-.418-.036-.835-.052-1.253-.017-.484-.033-.968-.06-1.454-.04-.728-.095-1.457-.155-2.186-.038-.468-.071-.937-.117-1.406-.078-.783-.176-1.566-.275-2.349-.054-.416-.1-.831-.157-1.247-.153-1.073-.332-2.147-.528-3.221-.022-.123-.038-.247-.062-.37-.223-1.191-.476-2.384-.751-3.576-.093-.407-.2-.813-.3-1.22-.195-.793-.391-1.585-.609-2.376-.131-.479-.278-.957-.418-1.437-.212-.723-.426-1.444-.657-2.166-.16-.5-.331-1-.5-1.5-.142-.422-.272-.845-.421-1.266.177-.062.35-.128.525-.191.467-.165.926-.334,1.387-.5.252-.093.508-.18.758-.275a42.38,42.38,0,0,1,11.878,28H91.089Z" transform="translate(-12 0)" fill="#322153"/>
</svg>
