<svg id="_012-analytics" data-name="012-analytics" xmlns="http://www.w3.org/2000/svg" width="104.738" height="90.292" viewBox="0 0 104.738 90.292">
  <g id="グループ_119" data-name="グループ 119" transform="translate(23.476 16.252)">
    <path id="パス_260" data-name="パス 260" d="M125.67,157.67C125.67,136.15,104,136,104,136v43.34h36.117v-7.223C125.67,172.117,125.67,161.883,125.67,157.67Z" transform="translate(-104 -128.777)" fill="#fbcc07"/>
    <path id="パス_261" data-name="パス 261" d="M367.223,111.223c0,7.111-7.223,7.223-7.223,7.223v36.117h14.447V104S367.223,104.114,367.223,111.223Z" transform="translate(-302.213 -104)" fill="#fbcc07"/>
  </g>
  <g id="グループ_120" data-name="グループ 120" transform="translate(0 0)">
    <path id="パス_262" data-name="パス 262" d="M95.709,32H9.029A9.039,9.039,0,0,0,0,41.029V98.816a9.039,9.039,0,0,0,9.029,9.029H43.34v.953a5.392,5.392,0,0,1-2.994,4.845l-10.454,5.228a1.805,1.805,0,0,0,.807,3.42h43.34a1.807,1.807,0,0,0,.809-3.422l-10.454-5.228a5.386,5.386,0,0,1-3-4.843v-.953H95.709a9.039,9.039,0,0,0,9.029-9.029V41.029A9.039,9.039,0,0,0,95.709,32ZM61.4,89.787V86.1A15,15,0,0,0,71.271,81.8c4.668-4.767,4.58-11.624,4.574-11.877V62.67a6.372,6.372,0,0,1,1.539-4.023,4.4,4.4,0,0,1,2.073-1.134V89.787Zm-57.787,0V69.9c0-.088-.056-8.854,5.679-14.671,3.036-3.079,7.2-4.782,12.379-5.1V89.787Zm21.67-39.6c4.934.556,18.058,3.556,18.058,19.738,0,3.866,0,15.322,14.447,16.2v3.664h-32.5Zm57.787,6.931a8.154,8.154,0,0,0,3.646-1.56c.045-.031.087-.07.132-.1.112-.09.228-.181.334-.276a8.206,8.206,0,0,0,3.041-6.134c.034-.273.06-.536.07-.78v-.018a6.8,6.8,0,0,1,.058-.74,6.143,6.143,0,0,1,.887-2.516,5.055,5.055,0,0,1,2.669-1.849V89.787H83.07V57.116ZM97.515,42.835h3.612V89.787H97.515Zm-93.9-1.806a5.424,5.424,0,0,1,5.417-5.417h86.68a5.41,5.41,0,0,1,5.085,3.612H95.68c-.2,0-.414.014-.634.034a8.291,8.291,0,0,0-6.311,3.032c-.034.04-.067.083-.1.125-.052.069-.107.134-.157.2a8.513,8.513,0,0,0-1.75,4.749c-.027.284-.045.56-.045.811a6.237,6.237,0,0,1-2.254,4.571,6.628,6.628,0,0,1-2.92.908c-.054,0-.1.009-.161.011-.036,0-.081,0-.112,0-.005,0-.011,0-.016,0a8.656,8.656,0,0,0-6.407,2.441A10.018,10.018,0,0,0,72.233,62.7V69.96c0,.056.074,5.618-3.543,9.313-2.138,2.183-5.2,3.29-9.1,3.29-12.641,0-12.641-8.224-12.641-12.641,0-23.048-23.228-23.474-23.463-23.476h-.013c-7.034,0-12.672,2.1-16.756,6.245a20.9,20.9,0,0,0-3.108,4.061Zm59.166,75.845,3.612,1.806H38.349l3.612-1.806a8.983,8.983,0,0,0,4.991-8.076v-.953H57.787v.953A8.983,8.983,0,0,0,62.778,116.874Zm32.931-12.641H9.029a5.424,5.424,0,0,1-5.417-5.418V93.4h97.515v5.417A5.424,5.424,0,0,1,95.709,104.233Z" transform="translate(0 -32)" fill="#322153"/>
    <path id="パス_263" data-name="パス 263" d="M224.524,320.6a1.85,1.85,0,0,0-.524,1.282,1.8,1.8,0,0,0,.144.686,2.11,2.11,0,0,0,.379.6,1.858,1.858,0,0,0,1.282.524,1.8,1.8,0,0,0,.686-.144,1.628,1.628,0,0,0,.975-.975,1.8,1.8,0,0,0,.145-.686,1.806,1.806,0,0,0-3.088-1.282Z" transform="translate(-173.437 -255.067)" fill="#322153"/>
  </g>
</svg>
