<svg xmlns="http://www.w3.org/2000/svg" width="311.81" height="60.845" viewBox="0 0 311.81 60.845">
  <path id="WEB_INTEGRATION_LE" data-name="WEB INTEGRATION &amp; LE" d="M283.333,60.845a10.629,10.629,0,0,1-3.57-.586,8.992,8.992,0,0,1-3.068-1.9l3.1-3.4a4.532,4.532,0,0,0,1.687,1.381,4.741,4.741,0,0,0,3.179.363,3.507,3.507,0,0,0,.976-.377,2.114,2.114,0,0,0,.7-.642,1.606,1.606,0,0,0,.265-.92,1.677,1.677,0,0,0-.684-1.408,6.321,6.321,0,0,0-1.715-.879c-.683-.24-1.434-.484-2.231-.725a10.082,10.082,0,0,1-2.231-.976,5.4,5.4,0,0,1-1.715-1.618,4.649,4.649,0,0,1-.683-2.649,5.956,5.956,0,0,1,.628-2.789,6.072,6.072,0,0,1,1.673-2.008A7.313,7.313,0,0,1,282.05,40.5a9.922,9.922,0,0,1,2.817-.4,11.128,11.128,0,0,1,3.235.474,7.5,7.5,0,0,1,2.817,1.59l-2.984,3.263a3.114,3.114,0,0,0-1.436-.99,5.177,5.177,0,0,0-1.716-.321,4.5,4.5,0,0,0-.976.112,3.742,3.742,0,0,0-.948.349,2.074,2.074,0,0,0-.725.628,1.738,1.738,0,0,0,.39,2.315,6.371,6.371,0,0,0,1.688.809c.674.222,1.41.447,2.189.67a9.06,9.06,0,0,1,2.189.948,5.21,5.21,0,0,1,1.687,1.646,5.038,5.038,0,0,1,.669,2.761,6.379,6.379,0,0,1-.613,2.873,5.859,5.859,0,0,1-1.66,2.036,7.093,7.093,0,0,1-2.426,1.2A10.708,10.708,0,0,1,283.333,60.845Zm-195.607,0a12.22,12.22,0,0,1-4.267-.725,9.82,9.82,0,0,1-3.375-2.078,9.467,9.467,0,0,1-2.218-3.277,12.006,12.006,0,0,1,0-8.591A9.467,9.467,0,0,1,80.084,42.9a9.819,9.819,0,0,1,3.375-2.078,12.229,12.229,0,0,1,4.267-.725,15.867,15.867,0,0,1,4.365.572,8.587,8.587,0,0,1,3.5,1.966l-3.068,3.347a6.137,6.137,0,0,0-2.008-1.395,7.188,7.188,0,0,0-2.789-.474,6.491,6.491,0,0,0-2.524.474,5.693,5.693,0,0,0-1.939,1.325,5.851,5.851,0,0,0-1.241,2.022,7.709,7.709,0,0,0,0,5.09,5.876,5.876,0,0,0,1.241,2.008A5.692,5.692,0,0,0,85.2,56.355a6.491,6.491,0,0,0,2.524.474,8.357,8.357,0,0,0,2.455-.321,9.276,9.276,0,0,0,1.645-.655V52.645H88.284V48.629H96.01v10.32a15.81,15.81,0,0,1-4.016,1.45A20.475,20.475,0,0,1,87.726,60.845Zm-79.5,0a9.335,9.335,0,0,1-2.594-.363,6.964,6.964,0,0,1-2.245-1.1,5.465,5.465,0,0,1-1.576-1.855,5.532,5.532,0,0,1-.586-2.594,5.072,5.072,0,0,1,.321-1.8,5.486,5.486,0,0,1,.892-1.548,6.362,6.362,0,0,1,1.325-1.213,6.839,6.839,0,0,1,1.646-.823c-.324-.362-.62-.7-.879-1a6.093,6.093,0,0,1-.7-1,4.85,4.85,0,0,1-.446-1.116,5.194,5.194,0,0,1-.153-1.311,4.745,4.745,0,0,1,.516-2.287,4.582,4.582,0,0,1,1.381-1.562,5.856,5.856,0,0,1,1.98-.893A9.442,9.442,0,0,1,9.4,40.094a7.966,7.966,0,0,1,2.176.293,5.518,5.518,0,0,1,1.827.892,4.455,4.455,0,0,1,1.269,1.506,4.63,4.63,0,0,1,.474,2.162,4.528,4.528,0,0,1-.293,1.645,5.743,5.743,0,0,1-.8,1.408A6.6,6.6,0,0,1,12.9,49.173a8.924,8.924,0,0,1-1.408.906l2.538,2.706,1.925-2.622h4.853l-4.156,5.522,4.407,4.658H15.675l-1.645-1.869a7.662,7.662,0,0,1-2.636,1.813A8.575,8.575,0,0,1,8.228,60.845ZM8,51.92c-.274.165-.551.338-.823.516a4.558,4.558,0,0,0-.725.586,2.593,2.593,0,0,0-.516.739,2.3,2.3,0,0,0-.2.976,2.227,2.227,0,0,0,.223,1,2.364,2.364,0,0,0,.586.753,2.939,2.939,0,0,0,1.841.669,3.285,3.285,0,0,0,1.688-.418,9.27,9.27,0,0,0,1.408-1.032Zm1.339-8.479a1.976,1.976,0,0,0-1.367.5,1.72,1.72,0,0,0-.558,1.339,1.635,1.635,0,0,0,.167.711,4.157,4.157,0,0,0,.4.67,4.659,4.659,0,0,0,.53.6c.2.192.38.356.544.5.221-.129.465-.284.725-.46a5.563,5.563,0,0,0,.725-.586,3.288,3.288,0,0,0,.558-.7,1.543,1.543,0,0,0,.223-.795,1.608,1.608,0,0,0-.572-1.325A2.143,2.143,0,0,0,9.344,43.441Zm229.951,16.9h-4.909l-1.7-4.184h-7.67l-1.646,4.184h-4.8L227.105,40.6h3.6l8.59,19.747Zm-10.515-14h0l-2.4,6.136h4.826l-2.427-6.136Zm-52.267,14H171.6l-1.7-4.184h-7.67l-1.646,4.184h-4.8L164.323,40.6h3.6l8.591,19.747ZM166,46.341l-2.4,6.136h4.825L166,46.341Zm-43.955,14h-4.909l-1.7-4.184h-7.67l-1.645,4.184h-4.8L109.853,40.6h3.6l8.59,19.747Zm-10.515-14-2.4,6.136h4.825Zm149.4,14h-4.351V40.6h7.642a13.537,13.537,0,0,1,2.859.293,6.811,6.811,0,0,1,2.371.976,4.884,4.884,0,0,1,1.618,1.841,6.265,6.265,0,0,1,.6,2.887,5.822,5.822,0,0,1-1.088,3.556A4.919,4.919,0,0,1,267.4,52l5.02,8.339H267.2l-4.128-7.894h-2.147v7.894Zm0-16.066v4.491h2.566c.386,0,.8-.014,1.241-.042a3.9,3.9,0,0,0,1.185-.251,2.056,2.056,0,0,0,.879-.655,2.007,2.007,0,0,0,.349-1.255,2.093,2.093,0,0,0-.307-1.2,2.055,2.055,0,0,0-.781-.683,3.479,3.479,0,0,0-1.088-.321,8.924,8.924,0,0,0-1.2-.084ZM249.093,60.343h-4.351V40.6h4.351Zm-42.5,0h-4.351V40.6h13.249v4.016h-8.9v4.016h8.228v4.016H206.6v7.7Zm-20.063,0h-4.351V40.6h13.248v4.016h-8.9v4.016h8.228v4.016h-8.228v7.7Zm-46.41,0H127.712V40.6h4.351V56.327h8.061v4.016Zm-69,0H57.2V40.6H70.62v4.016H61.555v3.682h8.563V52.31H61.555v4.016h9.567v4.016Zm-20.007,0H38.7V40.6h4.351V56.327h8.061v4.016ZM275.961,20.751a12.226,12.226,0,0,1-4.267-.725,9.817,9.817,0,0,1-3.375-2.078,9.463,9.463,0,0,1-2.217-3.277,11.2,11.2,0,0,1-.8-4.3,11.205,11.205,0,0,1,.8-4.3A9.464,9.464,0,0,1,268.319,2.8,9.805,9.805,0,0,1,271.694.725a12.917,12.917,0,0,1,8.535,0A9.807,9.807,0,0,1,283.6,2.8a9.459,9.459,0,0,1,2.218,3.277,11.2,11.2,0,0,1,.795,4.3,11.2,11.2,0,0,1-.795,4.3,9.459,9.459,0,0,1-2.218,3.277,9.819,9.819,0,0,1-3.375,2.078A12.229,12.229,0,0,1,275.961,20.751Zm0-16.735a6.492,6.492,0,0,0-2.524.474A5.692,5.692,0,0,0,271.5,5.815a5.84,5.84,0,0,0-1.241,2.022,7.306,7.306,0,0,0-.433,2.538,7.273,7.273,0,0,0,.433,2.552,5.867,5.867,0,0,0,1.241,2.008,5.692,5.692,0,0,0,1.938,1.325,6.955,6.955,0,0,0,5.048,0,5.692,5.692,0,0,0,1.939-1.325,5.879,5.879,0,0,0,1.241-2.008,7.274,7.274,0,0,0,.432-2.552,7.307,7.307,0,0,0-.432-2.538,5.851,5.851,0,0,0-1.241-2.022,5.692,5.692,0,0,0-1.939-1.325A6.491,6.491,0,0,0,275.961,4.016ZM176.2,20.751a12.229,12.229,0,0,1-4.267-.725,9.819,9.819,0,0,1-3.375-2.078,9.459,9.459,0,0,1-2.217-3.277,11.2,11.2,0,0,1-.8-4.3,11.2,11.2,0,0,1,.8-4.3A9.461,9.461,0,0,1,168.563,2.8,9.807,9.807,0,0,1,171.938.725,12.22,12.22,0,0,1,176.2,0a15.862,15.862,0,0,1,4.365.572,8.586,8.586,0,0,1,3.5,1.966L181,5.885a6.139,6.139,0,0,0-2.008-1.394,7.188,7.188,0,0,0-2.789-.474,6.491,6.491,0,0,0-2.524.474,5.687,5.687,0,0,0-1.938,1.325A5.847,5.847,0,0,0,170.5,7.837a7.307,7.307,0,0,0-.432,2.538,7.273,7.273,0,0,0,.432,2.552,5.874,5.874,0,0,0,1.241,2.008,5.688,5.688,0,0,0,1.938,1.325,6.491,6.491,0,0,0,2.524.474,8.358,8.358,0,0,0,2.455-.321,9.3,9.3,0,0,0,1.646-.655V12.551h-3.542V8.535h7.726v10.32a15.825,15.825,0,0,1-4.016,1.45A20.5,20.5,0,0,1,176.2,20.751Zm55.913-.5h-4.909l-1.7-4.184h-7.67l-1.646,4.184h-4.8L219.928.5h3.6l8.591,19.747Zm-10.515-14-2.4,6.136h4.826Zm90.208,14h-5.69L297.5,6.192h-.056V20.249H293.1V.5h5.913l8.4,13.723h.056V.5h4.351V20.249Zm-115.626,0h-4.351V.5h7.642A13.539,13.539,0,0,1,202.334.8a6.806,6.806,0,0,1,2.371.976,4.883,4.883,0,0,1,1.618,1.841,6.263,6.263,0,0,1,.6,2.887,5.822,5.822,0,0,1-1.088,3.556,4.918,4.918,0,0,1-3.18,1.854l5.02,8.339H202.46l-4.128-7.894h-2.148v7.894Zm0-16.066V8.674h2.566c.386,0,.8-.014,1.241-.042a3.912,3.912,0,0,0,1.185-.251,2.06,2.06,0,0,0,.879-.655,2,2,0,0,0,.349-1.255,2.1,2.1,0,0,0-.307-1.2,2.054,2.054,0,0,0-.781-.683,3.479,3.479,0,0,0-1.088-.321,8.92,8.92,0,0,0-1.2-.084ZM118.443,20.25h-5.69L104.135,6.192h-.056V20.249H99.728V.5h5.913l8.4,13.723h.056V.5h4.351V20.249Zm-96.214,0H18.353L14,6.582h-.056L9.595,20.249H5.857L0,.5H4.742L7.893,13.165h.056L12.077.5h4.044l4.1,13h.056L23.6.5H28L22.23,20.249Zm236.653,0h-4.351V.5h4.351Zm-15.656,0h-4.351V4.351h-5.634V.5h15.619V4.351h-5.634Zm-83.626,0H145.683V.5H159.1V4.518h-9.065V8.2H158.6v4.016h-8.563v4.016H159.6v4.016Zm-25.446,0H129.8V4.351H124.17V.5h15.619V4.351h-5.634Zm-41.911,0H87.893V.5h4.351Zm-29.583,0H54.573V.5h7.364a18.708,18.708,0,0,1,2.58.181,7.081,7.081,0,0,1,2.329.725,4.483,4.483,0,0,1,1.674,1.52,4.681,4.681,0,0,1,.641,2.594A4.161,4.161,0,0,1,68.226,8.3a5.162,5.162,0,0,1-2.468,1.576v.056a5.664,5.664,0,0,1,1.771.544A4.763,4.763,0,0,1,68.9,11.505a4.42,4.42,0,0,1,.879,1.465,5.173,5.173,0,0,1,.307,1.785,4.767,4.767,0,0,1-.67,2.608,5.282,5.282,0,0,1-1.729,1.687,7.63,7.63,0,0,1-2.385.921A12.822,12.822,0,0,1,62.662,20.249Zm-3.737-8.172v4.491h3.9a4.848,4.848,0,0,0,1.018-.111,2.708,2.708,0,0,0,.934-.391,2.227,2.227,0,0,0,.683-.725,2.105,2.105,0,0,0,.265-1.088,1.753,1.753,0,0,0-.349-1.13,2.22,2.22,0,0,0-.879-.655,4.527,4.527,0,0,0-1.144-.307,8.551,8.551,0,0,0-1.143-.084Zm0-7.893V8.4h3.152a4.444,4.444,0,0,0,.99-.111,2.764,2.764,0,0,0,.879-.362,1.9,1.9,0,0,0,.628-.67,2.014,2.014,0,0,0,.237-1,1.829,1.829,0,0,0-.265-1.018,1.855,1.855,0,0,0-.683-.628,3.261,3.261,0,0,0-.948-.32,5.706,5.706,0,0,0-1.032-.1ZM47.564,20.249H33.646V.5H47.062V4.518H38V8.2H46.56v4.016H38v4.016h9.567v4.016Z" transform="translate(0 0)" fill="#fff"/>
</svg>
